<?xml version="1.0" encoding="UTF-8"?>
<svg xmlns="http://www.w3.org/2000/svg" xmlns:xlink="http://www.w3.org/1999/xlink" width="3792" height="3792" viewBox="0 0 3792 3792">

<path fill-rule="nonzero" fill="rgb(13.330078%, 19.604492%, 24.705505%)" fill-opacity="1" d="M 2083.800781 1586.589844 C 2080.839844 1586.21875 2083.800781 1586.589844 2085.421875 1586.921875 C 2103.480469 1590.558594 2115.179688 1608.21875 2111.480469 1626.28125 L 2111.480469 1626.308594 C 2108.25 1642.109375 2094.339844 1653 2078.808594 1653 C 2077.429688 1653 2072.078125 1652.289062 2072.078125 1652.289062 C 2054.050781 1648.53125 2042.378906 1631.011719 2046.058594 1612.960938 L 2046.070312 1612.910156 C 2049.289062 1597.171875 2063.289062 1586.21875 2078.710938 1586.21875 Z M 1909.140625 1540.738281 L 1909.289062 1540.738281 C 1925.820312 1540.75 1942.640625 1541.910156 1959.410156 1544.199219 C 1962.878906 1544.679688 1966.421875 1545.191406 1969.878906 1545.769531 L 1971.640625 1546.109375 C 1989.710938 1549.78125 2001.359375 1567.410156 1997.660156 1585.480469 L 1997.660156 1585.5 C 1994.429688 1601.320312 1980.480469 1612.230469 1964.941406 1612.230469 C 1963.441406 1612.230469 1961.898438 1612.128906 1960.390625 1611.921875 C 1959.378906 1611.78125 1952.808594 1610.671875 1950.46875 1610.351562 C 1936.539062 1608.441406 1922.769531 1607.519531 1909.03125 1607.519531 C 1767.191406 1607.519531 1640.140625 1707.019531 1610.621094 1851.390625 C 1576.890625 2016.371094 1683.28125 2177.46875 1848.261719 2211.199219 C 1854.859375 2212.550781 1861.628906 2213.699219 1868.21875 2214.609375 L 1868.25 2214.609375 C 1882.179688 2216.519531 1895.941406 2217.441406 1909.660156 2217.441406 C 2051.5 2217.441406 2178.539062 2117.941406 2208.070312 1973.558594 C 2228.320312 1874.5 2198.058594 1776.851562 2134.910156 1707.378906 L 2134.871094 1707.328125 L 2134.828125 1707.289062 C 2126.898438 1699.621094 2123.070312 1688.199219 2125.441406 1676.589844 L 2125.46875 1676.480469 C 2128.738281 1660.699219 2142.628906 1649.859375 2158.109375 1649.859375 C 2159.609375 1649.859375 2164.421875 1650.460938 2164.871094 1650.550781 C 2172.78125 1652.128906 2179.5 1656.398438 2184.191406 1662.230469 L 2184.269531 1662.328125 C 2261.261719 1747.089844 2298.179688 1866.160156 2273.480469 1986.941406 C 2237.488281 2162.929688 2082.628906 2284.230469 1909.738281 2284.230469 C 1893.070312 2284.230469 1876.128906 2283.089844 1859.21875 2280.769531 C 1851.148438 2279.660156 1842.96875 2278.28125 1834.878906 2276.621094 C 1633.78125 2235.5 1504.078125 2039.121094 1545.210938 1838.019531 C 1581.171875 1662.160156 1735.910156 1540.738281 1908.648438 1540.738281 Z M 1667 2303.109375 C 1666.660156 2303.109375 1667 2303.109375 1667.960938 2303.128906 C 1686.378906 2303.609375 1700.921875 2318.929688 1700.449219 2337.359375 L 1700.449219 2337.390625 C 1700 2355.078125 1685.871094 2369.199219 1668.441406 2369.898438 C 1667.949219 2369.921875 1667.621094 2369.929688 1667.121094 2369.929688 C 1666.75 2369.929688 1666.398438 2369.949219 1666.230469 2369.949219 C 1647.820312 2369.449219 1633.261719 2354.148438 1633.699219 2335.730469 L 1633.699219 2335.660156 C 1634.148438 2318.019531 1648.21875 2303.910156 1665.601562 2303.160156 Z M 1918.390625 1390.871094 L 1922.519531 1390.980469 C 2210.53125 1398.28125 2438.078125 1637.691406 2430.769531 1925.699219 C 2423.769531 2202.070312 2203.03125 2422.78125 1930.710938 2433.710938 C 1923.71875 2433.980469 1916.601562 2434.121094 1909.539062 2434.160156 C 1909.511719 2434.160156 1909.339844 2434.160156 1909.339844 2434.160156 C 1904.808594 2434.128906 1900.628906 2434.070312 1896.058594 2433.960938 C 1851.820312 2432.828125 1809.050781 2426.25 1768.28125 2414.871094 L 1768.199219 2414.851562 C 1753.691406 2410.910156 1743.210938 2397.441406 1743.609375 2381.75 L 1743.609375 2381.730469 C 1744.058594 2364.078125 1758.128906 2349.949219 1775.5 2349.210938 C 1776.628906 2349.171875 1777.96875 2349.230469 1777.96875 2349.230469 C 1781.429688 2349.289062 1787.910156 2350.980469 1787.910156 2350.980469 C 1822.96875 2360.648438 1859.75 2366.25 1897.75 2367.210938 C 1901.808594 2367.320312 1905.449219 2367.359375 1909.488281 2367.359375 C 1915.671875 2367.359375 1921.839844 2367.230469 1927.960938 2366.988281 C 2165.429688 2357.46875 2357.910156 2165 2364.03125 1924 C 2370.398438 1672.859375 2171.96875 1464.101562 1920.820312 1457.730469 C 1917.550781 1457.648438 1896.71875 1457.699219 1890.621094 1457.941406 C 1653.148438 1467.460938 1460.660156 1659.929688 1454.550781 1900.941406 C 1450.96875 2041.878906 1511.941406 2169.410156 1610.46875 2255.429688 L 1610.488281 2255.449219 C 1617.710938 2261.761719 1622.171875 2271.109375 1621.898438 2281.441406 L 1621.898438 2281.480469 C 1621.460938 2299.160156 1607.328125 2313.289062 1589.898438 2313.980469 L 1587.679688 2314.03125 C 1579.769531 2313.800781 1572.570312 2310.859375 1566.960938 2306.140625 L 1566.921875 2306.109375 C 1453.691406 2207.519531 1383.699219 2061.050781 1387.800781 1899.25 C 1394.808594 1622.871094 1615.550781 1402.160156 1887.878906 1391.230469 Z M 1911.941406 968.5 L 1911.601562 968.5 C 1840.171875 968.5 1769.328125 976.640625 1700.160156 992.558594 L 1700 992.589844 C 1653.769531 1003.890625 1619.46875 1045.601562 1619.46875 1095.308594 C 1619.46875 1105.769531 1620.988281 1115.871094 1623.820312 1125.589844 L 1623.828125 1125.621094 C 1642.089844 1189.941406 1615.289062 1260.871094 1554.730469 1295.839844 C 1531.171875 1309.441406 1505.460938 1315.898438 1480.078125 1315.898438 C 1453.769531 1315.898438 1427.820312 1308.949219 1405.03125 1295.789062 C 1393.070312 1288.878906 1382.050781 1280.269531 1372.171875 1270.101562 L 1372.140625 1270.070312 C 1352.878906 1249.878906 1325.761719 1237.308594 1295.671875 1237.308594 C 1295.429688 1237.308594 1295.410156 1237.308594 1295.410156 1237.308594 C 1265.109375 1237.28125 1237.789062 1250.101562 1218.539062 1270.621094 L 1218.511719 1270.660156 C 1174.300781 1318.421875 1134.230469 1371.390625 1099.671875 1429.53125 C 1095.609375 1436.359375 1093.648438 1439.800781 1093.648438 1439.800781 C 1070.359375 1480.140625 1050.058594 1521.949219 1033.050781 1565.089844 L 1033.019531 1565.171875 C 1024.058594 1587.730469 1016.03125 1610.488281 1008.921875 1633.441406 L 1008.910156 1633.449219 C 1005.859375 1643.308594 1004.300781 1653.820312 1004.300781 1664.710938 C 1004.300781 1714.5 1038.730469 1756.210938 1085.070312 1767.519531 L 1086 1767.75 C 1150.730469 1784.179688 1198.589844 1842.828125 1198.589844 1912.671875 C 1198.589844 1939.871094 1191.339844 1965.371094 1178.648438 1987.351562 C 1165.488281 2010.140625 1146.5 2029.128906 1123.699219 2042.289062 C 1111.738281 2049.191406 1098.738281 2054.441406 1085 2057.910156 L 1084.980469 2057.910156 C 1057.871094 2064.488281 1033.398438 2081.730469 1018.351562 2107.789062 C 1003.160156 2134.101562 1000.5 2164.230469 1008.671875 2191.21875 L 1008.679688 2191.25 C 1029.160156 2257.359375 1057.269531 2322.210938 1093.320312 2384.671875 C 1129.25 2446.898438 1171.238281 2503.410156 1218.101562 2554.078125 C 1225.128906 2561.660156 1233.398438 2568.339844 1242.828125 2573.78125 C 1259.480469 2583.390625 1277.609375 2588.03125 1295.550781 2588.03125 C 1295.601562 2588.03125 1295.609375 2588.03125 1295.609375 2588.03125 C 1319.359375 2587.96875 1342.558594 2579.949219 1361.371094 2565.070312 L 1361.398438 2565.050781 C 1365.691406 2561.730469 1369.679688 2558.03125 1373.390625 2554.171875 L 1373.480469 2554.070312 C 1374.21875 2553.320312 1374.960938 2552.570312 1375.710938 2551.851562 L 1375.769531 2551.800781 C 1384.710938 2543.078125 1394.441406 2535.660156 1405.03125 2529.558594 C 1427.820312 2516.398438 1453.769531 2509.449219 1480.078125 2509.441406 C 1485.820312 2509.441406 1491.621094 2509.75 1497.371094 2510.449219 L 1497.539062 2510.46875 C 1517.339844 2512.710938 1537.121094 2518.261719 1555.480469 2528.859375 C 1579.039062 2542.460938 1597.488281 2561.5 1610.179688 2583.46875 C 1623.339844 2606.269531 1630.300781 2632.210938 1630.300781 2658.53125 C 1630.300781 2672.339844 1628.308594 2686.261719 1624.441406 2699.960938 L 1624.429688 2699.980469 C 1616.609375 2726.710938 1619.308594 2756.480469 1634.339844 2782.519531 C 1649.53125 2808.828125 1674.28125 2826.199219 1701.738281 2832.613281 L 1701.789062 2832.625 C 1730.25 2839.085938 1758.949219 2844.820312 1788.308594 2848.644531 L 1788.429688 2848.664062 C 1828.28125 2853.769531 1868.878906 2856.476562 1910.109375 2856.476562 C 1910.140625 2856.476562 1910.171875 2856.476562 1910.171875 2856.476562 C 1982.289062 2856.417969 2052.25 2848.480469 2119.710938 2833.082031 C 2123.578125 2832.195312 2125.308594 2831.609375 2125.308594 2831.609375 L 2125.371094 2831.59375 C 2133.851562 2829.160156 2142.171875 2825.714844 2150.140625 2821.109375 C 2154.75 2818.445312 2159.089844 2815.488281 2163.140625 2812.273438 L 2163.160156 2812.257812 C 2172.71875 2804.050781 2180.898438 2794.230469 2187.449219 2782.910156 C 2202.410156 2757 2205.148438 2727.378906 2197.46875 2700.730469 L 2197.390625 2700.46875 C 2193.519531 2686.601562 2191.488281 2672.71875 2191.488281 2658.910156 C 2191.488281 2632.601562 2198.449219 2606.648438 2211.601562 2583.859375 C 2224.289062 2561.890625 2242.738281 2542.839844 2266.300781 2529.238281 C 2284.660156 2518.640625 2304.5 2513.121094 2324.320312 2510.871094 L 2324.449219 2510.859375 C 2330.199219 2510.160156 2335.960938 2509.828125 2341.699219 2509.828125 C 2368.019531 2509.828125 2393.96875 2516.78125 2416.761719 2529.941406 C 2427.339844 2536.050781 2437.058594 2543.460938 2446 2552.171875 C 2455.910156 2562.089844 2460.199219 2565.398438 2460.199219 2565.398438 L 2460.269531 2565.460938 C 2479.078125 2580.339844 2502.421875 2588.351562 2526.179688 2588.351562 C 2544.121094 2588.351562 2562.300781 2583.78125 2578.949219 2574.160156 C 2588.378906 2568.71875 2596.679688 2562.148438 2603.71875 2554.570312 L 2603.730469 2554.550781 C 2650.589844 2503.871094 2692.53125 2447.28125 2728.460938 2385.050781 C 2764.519531 2322.601562 2792.621094 2257.75 2813.101562 2191.640625 L 2813.101562 2191.628906 C 2821.28125 2164.640625 2818.621094 2134.480469 2803.429688 2108.171875 C 2788.390625 2082.109375 2763.910156 2064.871094 2736.808594 2058.289062 L 2736.769531 2058.28125 C 2723.03125 2054.820312 2710.039062 2049.578125 2698.078125 2042.671875 C 2675.289062 2029.511719 2656.300781 2010.519531 2643.140625 1987.730469 C 2630.449219 1965.75 2623.191406 1940.25 2623.191406 1913.058594 C 2623.191406 1843.179688 2671.179688 1784.609375 2735.949219 1768.191406 L 2736.730469 1768 C 2783.070312 1756.628906 2817.480469 1714.890625 2817.480469 1665.089844 C 2817.480469 1654.199219 2815.820312 1643.710938 2812.78125 1633.820312 C 2805.679688 1610.699219 2797.691406 1588.039062 2788.769531 1565.558594 L 2788.75 1565.519531 C 2771.738281 1522.371094 2751.421875 1480.53125 2728.128906 1440.179688 C 2726.160156 1436.761719 2724.160156 1433.359375 2722.140625 1429.960938 L 2722.070312 1429.851562 C 2687.488281 1371.71875 2647.480469 1318.808594 2603.269531 1271.050781 L 2603.261719 1271.03125 C 2583.96875 1250.449219 2556.539062 1237.679688 2526.160156 1237.679688 C 2496.058594 1237.679688 2468.898438 1250.261719 2449.640625 1270.449219 L 2449.628906 1270.46875 C 2439.75 1280.648438 2428.71875 1289.269531 2416.75 1296.179688 C 2393.96875 1309.328125 2368.019531 1316.28125 2341.699219 1316.28125 C 2316.328125 1316.28125 2290.609375 1309.820312 2267.058594 1296.21875 C 2206.609375 1261.328125 2179.859375 1190.621094 2197.910156 1126.371094 L 2197.96875 1126.171875 C 2200.789062 1116.25 2202.308594 1106.140625 2202.308594 1095.679688 C 2202.308594 1045.980469 2168 1004.289062 2121.769531 992.980469 L 2121.621094 992.941406 C 2095.058594 986.828125 2068.230469 981.320312 2041.21875 977.53125 L 2041.089844 977.511719 C 1998.03125 971.46875 1955.101562 968.5 1912.039062 968.5 Z M 1911.941406 968.5 "/>
</svg>
